<svg xmlns="http://www.w3.org/2000/svg" viewBox="0 0 800 600" fill="none">
  <rect width="800" height="600" fill="#0a0a0a"/>
  <defs>
    <linearGradient id="grad1" x1="0%" y1="0%" x2="100%" y2="100%">
      <stop offset="0%" style="stop-color:#0a0a0a;stop-opacity:1" />
      <stop offset="100%" style="stop-color:#1a1a1a;stop-opacity:1" />
    </linearGradient>
  </defs>
  <rect width="800" height="600" fill="url(#grad1)"/>

  <circle cx="400" cy="300" r="200" stroke="#222" stroke-width="2" />
  <circle cx="400" cy="300" r="180" stroke="#00f2ff" stroke-width="1" opacity="0.3" stroke-dasharray="10 10"/>

  <g transform="translate(400, 280)">
    
    <path d="M0 -80 C-40 -40 -70 10 -70 50 C-70 90 -40 120 0 120 C40 120 70 90 70 50 C70 10 40 -40 0 -80 Z" fill="#00f2ff" opacity="0.1"/>
    <path d="M0 -70 C-35 -35 -60 10 -60 45 C-60 80 -35 105 0 105 C35 105 60 80 60 45 C60 10 35 -35 0 -70 Z" stroke="#00f2ff" stroke-width="3" fill="none"/>

    <path d="M-20 45 L-20 25 L-35 25 L-35 65 L-20 65 L-20 45 M20 45 L20 25 L35 25 L35 65 L20 65 L20 45" stroke="white" stroke-width="4" stroke-linecap="round"/>
    <circle cx="0" cy="45" r="15" stroke="white" stroke-width="4" fill="none"/>
    
  </g>

  <text x="400" y="480" text-anchor="middle" font-family="Arial, sans-serif" font-weight="900" font-size="42" fill="white" letter-spacing="4">WATER MASTER</text>
  <text x="400" y="520" text-anchor="middle" font-family="Arial, sans-serif" font-weight="400" font-size="16" fill="#888" letter-spacing="2">EST. GLOBAL ENGINEERING</text>

  <line x1="350" y1="540" x2="450" y2="540" stroke="#00f2ff" stroke-width="3" stroke-linecap="round"/>
</svg>